<svg version="1" xmlns="http://www.w3.org/2000/svg" width="533.333" height="533.333" viewBox="0 0 400.000000 400.000000"><path d="M16.1 64.3c1.4 1.1 5 4.2 16.4 14.2 1.7 1.5 5 4.3 7.4 6.3 2.4 2 5.6 4.8 7.1 6.2 2.2 2.2 10.3 9.3 18.1 16.1 3.8 3.3 14.8 12.9 20.9 18.3 9.2 8.1 20.2 17.9 24.5 21.7 2.2 2 5 4.4 6.3 5.5 1.2 1 2.2 2.2 2.2 2.7s-1.7 2.6-3.7 4.7c-4.2 4.1-49.4 50.7-58.7 60.4-3.2 3.3-8 8.4-10.7 11.1l-4.9 5.1 12.7 12.6c17 16.9 25.6 24.8 26.8 24.8.9 0 9.1-8.4 63.7-64.4l16.4-16.9 2.9 1.6c1.7.8 4.1 2.7 5.4 4.1 2 2.1 2.1 2.7 1 3.9-1.9 1.9-49.2 50.8-54.9 56.7-15.6 16.1-24 25.2-24 26 0 .4 8.7 9.2 19.3 19.5l19.2 18.7 18.5-18.9c10.2-10.4 28.9-29.7 41.7-42.8l23.2-23.8 6.2 5.4c3.5 3 11 9.6 16.8 14.8 5.8 5.1 12 10.5 13.6 12 1.7 1.4 6.8 6 11.5 10.1s10 8.8 11.9 10.5c1.9 1.6 6 5.2 9.1 8 3 2.7 8.4 7.5 11.9 10.5s8.4 7.4 11 9.7l4.6 4.3 39.3-.1c36.1 0 39.3-.1 38-1.6-.7-.9-10.1-9.3-20.8-18.7-16.8-14.7-21.9-19.2-28.4-25.1-.6-.6-8.1-7.1-16.6-14.5-8.5-7.4-15.9-14-16.5-14.5-.5-.6-6.4-5.8-13-11.6-6.6-5.7-12.5-10.9-13.1-11.4-.6-.6-7.2-6.4-14.7-13-10.5-9.3-13.3-12.3-12.7-13.5.9-1.5 7.8-8.8 28.4-30.2 6-6.2 12.7-13.2 14.8-15.4l4-4.1-9.9-9.8c-5.4-5.3-14.3-14-19.7-19.2l-10-9.4-10.9 11.3c-6 6.2-17.4 18-25.4 26.2l-14.5 14.8-2.6-2.4c-1.5-1.4-3.7-3.4-5-4.5l-2.3-2.1 4.6-4.8c2.6-2.7 10.9-11.2 18.4-18.9 7.5-7.7 16.9-17.4 20.9-21.6l7.3-7.6-12.8-12.6c-7-6.9-15.9-15.6-19.8-19.1l-7-6.6-26.6 27.2-26.6 27.2-7.9-6.8c-4.3-3.8-9.9-8.7-12.4-11-2.5-2.3-9.9-8.8-16.5-14.6-6.6-5.7-12.7-11.1-13.5-12-.8-.8-3.8-3.4-6.6-5.8L94.2 63H54.4c-31.6.1-39.6.3-38.3 1.3z"/></svg>